# xmcd
#
# Track frame offsets:
#	150
#	10845
#	20895
#	30230
#	40432
#	49860
#	57790
#	66830
#	75585
#	85850
#	95030
#	105945
#	113440
#	123060
#	133570
#	143865
#	152885
#	163375
#	172657
#	183827
#
# Disc length: 2571 seconds
#
# Revision: 2
# Processed by: cddbd v1.5.2PL0 Copyright (c) Steve Scherf et al.
# Submitted via: audiograbber 1.83.01
#
DISCID=f70a0914
DTITLE=Fats Domino - The Most Of Fats Domino
DYEAR=1992
DGENRE=Blues
TTITLE0=Blueberry Hill
TTITLE1=I'm Walkin'
TTITLE2=I'm Ready
TTITLE3=Be My Guest
TTITLE4=My Girl Josephine
TTITLE5=Three Nights A Week
TTITLE6=I Want You To Know
TTITLE7=Don't Come Knockin'
TTITLE8=Blue Monday
TTITLE9=Put Your Arms Around Me Honey
TTITLE10=Ain't That A Shame
TTITLE11=Whole Lotta Lovin'
TTITLE12=My Blue Heaven
TTITLE13=I Want To Walk You Home
TTITLE14=Let The Four Winds Blow
TTITLE15=The Big Beat
TTITLE16=When My Dreamboat Comes Home
TTITLE17=I'm Gonna Be A Wheel Some Day
TTITLE18=Coquette
TTITLE19=Walking To New Orleans
EXTD=
EXTT0=
EXTT1=
EXTT2=
EXTT3=
EXTT4=
EXTT5=
EXTT6=
EXTT7=
EXTT8=
EXTT9=
EXTT10=
EXTT11=
EXTT12=
EXTT13=
EXTT14=
EXTT15=
EXTT16=
EXTT17=
EXTT18=
EXTT19=
PLAYORDER=
